<?xml version="1.0" encoding="UTF-8" standalone="no"?>
<!-- Created with Inkscape (http://www.inkscape.org/) -->

<svg
   xmlns:dc="http://purl.org/dc/elements/1.1/"
   xmlns:cc="http://creativecommons.org/ns#"
   xmlns:rdf="http://www.w3.org/1999/02/22-rdf-syntax-ns#"
   xmlns:svg="http://www.w3.org/2000/svg"
   xmlns="http://www.w3.org/2000/svg"
   xmlns:sodipodi="http://sodipodi.sourceforge.net/DTD/sodipodi-0.dtd"
   xmlns:inkscape="http://www.inkscape.org/namespaces/inkscape"
   width="210mm"
   height="297mm"
   viewBox="0 0 744.09448819 1052.3622047"
   id="svg4202"
   version="1.1"
   inkscape:version="0.91 r13725"
   sodipodi:docname="bibi.svg">
  <defs
     id="defs4204">
    <inkscape:path-effect
       effect="spiro"
       id="path-effect4948"
       is_visible="true" />
    <inkscape:path-effect
       effect="spiro"
       id="path-effect3372"
       is_visible="true" />
    <inkscape:path-effect
       effect="spiro"
       id="path-effect3372-3"
       is_visible="true" />
    <clipPath
       clipPathUnits="userSpaceOnUse"
       id="clipPath5164">
      <rect
         style="opacity:0.52999998;fill:#ffffff;fill-opacity:0.63768119;stroke:#481c1c;stroke-width:5;stroke-miterlimit:4;stroke-dasharray:none;stroke-opacity:0.63050848"
         id="rect5166"
         width="73.741135"
         height="52.527931"
         x="96.974648"
         y="216.96605"
         ry="13.8712" />
    </clipPath>
  </defs>
  <sodipodi:namedview
     id="base"
     pagecolor="#ffffff"
     bordercolor="#666666"
     borderopacity="1.0"
     inkscape:pageopacity="0.0"
     inkscape:pageshadow="2"
     inkscape:zoom="0.98994949"
     inkscape:cx="225.03846"
     inkscape:cy="562.99246"
     inkscape:document-units="px"
     inkscape:current-layer="layer1"
     showgrid="false"
     inkscape:window-width="1855"
     inkscape:window-height="1056"
     inkscape:window-x="65"
     inkscape:window-y="24"
     inkscape:window-maximized="1" />
  <metadata
     id="metadata4207">
    <rdf:RDF>
      <cc:Work
         rdf:about="">
        <dc:format>image/svg+xml</dc:format>
        <dc:type
           rdf:resource="http://purl.org/dc/dcmitype/StillImage" />
        <dc:title></dc:title>
      </cc:Work>
    </rdf:RDF>
  </metadata>
  <g
     inkscape:label="Calque 1"
     inkscape:groupmode="layer"
     id="layer1">
    <path
       inkscape:connector-curvature="0"
       d="m 582.52927,202.80514 c 4.97355,13.10169 29.60678,8.78308 38.34124,-3.68655 -3.48348,-7.08709 -5.95167,-15.59561 -13.58503,-19.30504 -6.48363,-0.74074 -12.77565,1.06106 -18.94754,2.86001 -4.97355,3.87531 -6.92121,15.15231 -5.80867,20.13158 z"
       style="fill:#e9d2af;fill-rule:evenodd;stroke:#3f2d10;stroke-width:2.86000633px"
       sodipodi:nodetypes="ccccc"
       id="path2619-6" />
    <path
       inkscape:connector-curvature="0"
       d="m 589.83235,72.413024 c -29.88706,-0.17446 -41.12552,20.22754 -41.52592,45.878936 0,5.36537 2.47963,15.92737 3.80953,21.24412 -0.61776,10.47334 -3.21179,18.38698 -0.12298,28.60864 3.59503,14.46306 -0.74892,25.47031 13.24223,28.58771 12.42101,-0.2431 24.4284,1.05188 33.73772,-7.63109 13.33049,-10.90807 36.08035,-38.18815 40.99957,-54.32431 1.7446,-15.41257 -4.77398,-29.62852 -9.14407,-44.002906 -5.50986,-11.15202 -26.08973,-20.5633 -40.99608,-18.3611 z"
       style="fill:#e9d2af;fill-rule:evenodd;stroke:#3f2d10;stroke-width:2.86000633px"
       sodipodi:nodetypes="ccccccccc"
       id="path2550-7" />
    <path
       inkscape:connector-curvature="0"
       d="m 575.62275,125.14948 c -3.90676,8.5743 -0.88374,13.60219 7.48178,12.36381 2.57115,1.1297 7.92508,-5.13658 6.69527,-9.29503 0.27028,-4.44239 -8.76019,-11.40856 -14.17705,-3.06878 z"
       style="fill:#ffffff;fill-rule:evenodd;stroke:#333333;stroke-width:1.43000317;stroke-miterlimit:4;stroke-dasharray:none"
       sodipodi:nodetypes="cccc"
       id="path2565-5" />
    <path
       inkscape:connector-curvature="0"
       d="m 558.029,121.16446 c -6.73246,1.51008 -9.45619,4.91738 -8.1463,12.56504 7.77063,14.35151 23.41864,-13.23766 8.1463,-12.56504 z"
       style="fill:#ffffff;fill-rule:evenodd;stroke:#333333;stroke-width:1.43000317;stroke-miterlimit:4;stroke-dasharray:none"
       sodipodi:nodetypes="ccc"
       id="path2567-3" />
    <path
       inkscape:connector-curvature="0"
       d="m 566.73777,133.4076 c -1.18976,6.89262 -7.86215,10.10155 -11.44002,13.58503 -1.82755,7.64766 -0.7293,13.13601 7.86501,11.44003 6.00602,-2.79137 8.417,-7.41886 9.29502,-13.58503"
       style="fill:#e9d2af;fill-rule:evenodd;stroke:#3f2d10;stroke-width:2.86000633px"
       sodipodi:nodetypes="cccc"
       id="path2569-5" />
    <path
       inkscape:connector-curvature="0"
       d="m 617.43851,126.16269 c 16.75677,-6.66381 13.81097,18.17248 1.43,15.73004"
       style="fill:#e9d2af;fill-rule:evenodd;stroke:#3f2d10;stroke-width:2.86000633px"
       sodipodi:nodetypes="cc"
       id="path2571-6" />
    <path
       inkscape:connector-curvature="0"
       d="m 620.65601,130.0952 c 2.43387,-4.26999 8.84314,3.37195 0,7.50752"
       style="fill:#e9d2af;fill-rule:evenodd;stroke:#3f2d10;stroke-width:2.86000633px"
       sodipodi:nodetypes="cs"
       id="path2573-2" />
    <path
       style="opacity:0.39599998;fill:#f9f9f9;fill-rule:evenodd;stroke:#000000;stroke-width:1.43000317;stroke-linecap:butt;stroke-linejoin:miter;stroke-miterlimit:4;stroke-dasharray:none;stroke-opacity:0.22222224"
       inkscape:path-effect="#path-effect3372-3"
       inkscape:original-d="m 635.56514,145.2728 c -3.23767,3.61828 -5.05772,7.5976 -8.18831,11.23722 -3.25967,2.96105 -5.15719,9.01454 -8.04898,12.33961 -5.67925,7.50237 -5.31063,8.75622 -14.64,15.77728 -2.35427,2.73757 -13.59386,8.11027 -16.63791,9.96524 -4.04005,2.46189 -8.33226,2.29238 -12.90017,2.20635 -5.35462,-0.10096 -7.69674,2.29876 -10.96121,-0.76248 -3.40092,-3.18922 -6.53362,-5.12341 -9.11192,-9.30757 -1.99322,-3.23473 -0.11812,-11.46062 -2.79437,-14.43692 -2.40484,-2.67439 -2.62669,-6.73823 1.70196,-8.31607 4.84322,-1.76536 9.31928,-4.58945 14.57754,-4.86615 4.77784,-0.2514 9.46024,0.52498 13.86328,3.3293 3.857,2.45658 12.46926,2.0488 16.79261,-0.39259 4.33171,-1.3805 6.22509,-5.59157 9.32863,-8.45083 4.36088,-4.19177 9.08867,-8.20473 14.84157,-10.31982 3.61162,-0.94146 5.89888,-4.31535 9.6396,-4.78648 7.77246,0.70685 -2.64531,8.01574 2.53768,6.78391 z"
       id="path3370-9"
       d="m 635.56514,145.2728 -8.18831,11.23722 -8.04898,12.33961 -14.64,15.77728 c -4.60659,4.63044 -10.38151,8.08932 -16.63791,9.96524 -4.18584,1.25509 -8.54859,1.80596 -12.90017,2.20635 -3.68058,0.33865 -7.50765,0.55444 -10.96121,-0.76248 -2.08089,-0.79349 -3.93855,-2.12283 -5.46334,-3.74603 -1.52479,-1.62319 -2.72391,-3.53553 -3.64858,-5.56154 -2.05029,-4.49232 -2.75064,-9.49903 -2.79437,-14.43692 -0.0254,-2.86787 0.20265,-5.87119 1.70196,-8.31607 1.42018,-2.31585 3.87299,-3.8818 6.49174,-4.60445 2.61875,-0.72264 5.3992,-0.66448 8.0858,-0.2617 4.70236,0.70499 9.19343,2.43392 13.86328,3.3293 5.54063,1.06234 11.30768,0.92751 16.79261,-0.39259 2.95814,-2.97828 6.07345,-5.80045 9.32863,-8.45083 4.67713,-3.80814 9.64325,-7.26124 14.84157,-10.31982 l 9.6396,-4.78648 2.53768,6.78391 z"
       inkscape:connector-curvature="0"
       sodipodi:nodetypes="ccccssssssssccccc" />
    <path
       inkscape:connector-curvature="0"
       d="m 560.23838,170.49279 c 2.75991,1.16974 10.57916,0.54626 15.37253,0"
       style="fill:none;stroke:#3f2d10;stroke-width:2.86000633px"
       sodipodi:nodetypes="cc"
       id="path2575-1" />
    <path
       inkscape:connector-curvature="0"
       d="m 579.23208,126.19624 c 1.10682,-1.02102 -5.36823,-2.92293 -5.00501,2.86001 0.28314,4.48163 5.69999,5.54841 7.50752,4.29001 3.63221,-2.53111 -0.74932,-8.0452 -2.50251,-7.15002 z"
       style="fill:#0000d5;fill-opacity:1;fill-rule:evenodd;stroke:#000000;stroke-width:1.43000317;stroke-miterlimit:4;stroke-dasharray:none"
       sodipodi:nodetypes="cssc"
       id="path2577-2" />
    <path
       inkscape:connector-curvature="0"
       d="m 555.80571,126.10758 c 1.30703,-2.71129 -6.22623,-0.53482 -4.29001,5.72001 1.33563,4.31861 6.07752,1.66167 6.43502,1.43001 4.80481,-3.10311 0.91806,-11.01675 -2.14501,-7.15002 z"
       style="fill:#0000d5;fill-opacity:1;fill-rule:evenodd;stroke:#000000;stroke-width:1.43000317;stroke-miterlimit:4;stroke-dasharray:none"
       sodipodi:nodetypes="cssc"
       id="path2579-7" />
    <rect
       ry="6.2893028"
       y="121.19456"
       x="544.69458"
       height="16.265432"
       width="24.723475"
       id="rect4163-0"
       style="opacity:1;fill:#ffffff;fill-opacity:0.63768119;fill-rule:evenodd;stroke:#0000cf;stroke-width:1.43000317;stroke-linecap:round;stroke-linejoin:round;stroke-miterlimit:4;stroke-dasharray:none;stroke-opacity:1" />
    <rect
       ry="6.2893028"
       y="121.0861"
       x="572.69824"
       height="16.265432"
       width="24.723475"
       id="rect4163-3-9"
       style="opacity:1;fill:#ffffff;fill-opacity:0.63768119;fill-rule:evenodd;stroke:#0000cf;stroke-width:1.43000317;stroke-linecap:round;stroke-linejoin:round;stroke-miterlimit:4;stroke-dasharray:none;stroke-opacity:1" />
    <path
       style="fill:none;fill-rule:evenodd;stroke:#0000e5;stroke-width:1.43000317;stroke-linecap:butt;stroke-linejoin:miter;stroke-miterlimit:4;stroke-dasharray:none;stroke-opacity:1"
       d="m 563.9962,121.25375 13.44609,-0.2268"
       id="path4204-3"
       inkscape:connector-curvature="0"
       sodipodi:nodetypes="cc" />
    <path
       style="fill:#ffffff;fill-opacity:0.63768119;fill-rule:evenodd;stroke:none;stroke-width:0.2;stroke-linecap:butt;stroke-linejoin:miter;stroke-miterlimit:4;stroke-dasharray:none;stroke-opacity:1"
       d="m 554.23694,104.49537 c 6.56026,-33.219336 54.85326,-26.872896 69.69555,-0.44161 1.70814,3.04187 -8.43024,17.16841 -7.72279,20.71265 19.89412,-18.46217 16.3325,44.42336 22.90471,6.94023 -3.42866,-28.16188 -8.78185,-46.029596 -21.99814,-53.709486 -15.21666,-8.84231 -31.75908,-5.98459 -43.94045,-0.96965 -6.89408,2.83821 -18.23532,7.34352 -22.69384,31.297296"
       id="path4212-6"
       inkscape:connector-curvature="0"
       sodipodi:nodetypes="csccssc" />
    <path
       inkscape:connector-curvature="0"
       style="fill:none;fill-rule:evenodd;stroke:#0000db;stroke-width:1.43000317;stroke-linecap:butt;stroke-linejoin:miter;stroke-miterlimit:4;stroke-dasharray:none;stroke-opacity:1"
       d="m 593.94787,121.25401 28.22023,2.15058 -28.22023,-2.15058 z"
       id="path4206-0" />
    <g
       id="g5168">
      <path
         id="path2619"
         sodipodi:nodetypes="ccccc"
         style="opacity:0.62300002;fill:#e9d2af;fill-rule:evenodd;stroke:#3f2d10;stroke-width:1.94373393;stroke-miterlimit:4;stroke-dasharray:none"
         d="m 337.07294,822.12165 c -22.08965,53.54934 -131.49636,35.89829 -170.28983,-15.06772 15.47166,-28.96645 6.01923,-92.96616 39.92221,-108.12737 28.79659,-3.02757 77.15682,33.56039 104.56884,40.91305 22.08968,15.83923 30.74007,61.93071 25.79878,82.28204 z"
         inkscape:connector-curvature="0" />
      <path
         id="path2550"
         sodipodi:nodetypes="ccccccccc"
         style="fill:#e9d2af;fill-rule:evenodd;stroke:#3f2d10;stroke-width:1.55342364;stroke-miterlimit:4;stroke-dasharray:none"
         d="m 292.52601,397.38445 c 104.79922,-0.57686 144.20704,66.88426 145.61105,151.70301 0,17.7411 -8.69482,52.66535 -13.35814,70.24569 2.16618,34.63109 11.26215,60.79828 0.43123,94.59715 -12.606,47.82344 2.62609,84.21985 -46.43398,94.52786 C 335.2218,807.65431 293.1178,811.9363 260.47459,783.22521 213.73112,747.15667 133.95856,656.95261 116.7093,603.5969 c -6.11747,-50.96311 16.7399,-97.96957 32.06365,-145.49985 19.32047,-36.87511 91.48381,-67.99439 143.75306,-60.7126 z"
         inkscape:connector-curvature="0" />
      <path
         id="path2565"
         sodipodi:nodetypes="cccc"
         style="fill:#ffffff;fill-rule:evenodd;stroke:#333333;stroke-width:4.59435892;stroke-miterlimit:4;stroke-dasharray:none"
         d="m 342.46424,572.44295 c 13.76826,25.1138 6.34636,29.17364 -26.36738,36.21313 -13.90907,-1.64352 -27.92964,-15.04482 -23.59557,-27.22478 -0.95247,-13.01166 30.8728,-33.41525 49.96295,-8.98835 z"
         inkscape:connector-curvature="0" />
      <path
         id="path2567"
         sodipodi:nodetypes="ccc"
         style="fill:#ffffff;fill-rule:evenodd;stroke:#333333;stroke-width:4.50013351;stroke-miterlimit:4;stroke-dasharray:none"
         d="m 404.01918,561.82874 c 23.77894,4.23408 33.39904,13.78778 28.77253,35.23081 -27.44579,40.23977 -82.71435,-37.11665 -28.77253,-35.23081 z"
         inkscape:connector-curvature="0" />
      <path
         id="path2571"
         sodipodi:nodetypes="cc"
         style="opacity:0.52999998;fill:#e9d2af;fill-rule:evenodd;stroke:#3f2d10;stroke-width:5;stroke-miterlimit:4;stroke-dasharray:none"
         d="m 195.72491,575.11279 c -58.75776,-22.03454 -48.42828,60.089 -5.01432,52.01282"
         inkscape:connector-curvature="0" />
      <path
         id="path2573"
         sodipodi:nodetypes="cs"
         style="opacity:0.52999998;fill:#e9d2af;fill-rule:evenodd;stroke:#3f2d10;stroke-width:5;stroke-miterlimit:4;stroke-dasharray:none"
         d="m 184.4427,588.11599 c -8.53438,-14.11912 -31.00854,11.14967 0,24.82431"
         inkscape:connector-curvature="0" />
      <path
         sodipodi:nodetypes="csccsssccsssccccc"
         inkscape:connector-curvature="0"
         d="m 127.00144,628.03152 c 6.32273,11.57147 13.12502,22.88091 20.38355,33.88953 12.58069,19.08047 26.53342,37.25609 41.71481,54.3401 l 51.33537,52.16897 c 14.39659,18.69118 35.64042,31.98483 58.74486,36.76049 15.48684,3.20111 31.46131,2.67204 47.25457,3.48599 9.80177,0.50516 19.6343,1.53207 29.40712,0.62549 9.77281,-0.90659 19.67827,-3.94222 26.94224,-10.54257 6.32636,-5.7484 10.19039,-13.7828 12.4348,-22.03081 2.24441,-8.24801 3.0057,-16.8126 4.05493,-25.29589 1.68713,-13.64083 4.14093,-27.1868 7.34597,-40.55267 -2.30213,-3.9313 -5.13283,-7.55264 -8.39195,-10.73589 -6.59326,-6.43977 -14.90206,-11.02284 -23.74088,-13.63378 -8.83881,-2.61093 -18.19617,-3.28488 -27.37527,-2.45671 -16.56529,1.49458 -32.30081,7.75335 -48.61169,11.00874 -19.40769,3.87347 -39.66533,3.42683 -58.88344,-1.29824 -10.41206,-9.87023 -21.33515,-19.20133 -32.71089,-27.94346 -16.46338,-12.65192 -33.87559,-24.06889 -52.04209,-34.12335 l -35.41735,-16.2079 -12.44466,12.54196 z"
         id="path3370"
         inkscape:original-d="m 127.00144,628.03152 c 11.35303,11.96418 323.13743,464.36738 20.38355,33.88953 -31.8666,-45.3103 31.57475,43.34534 41.71481,54.3401 19.91435,24.80719 18.62186,28.95317 51.33537,52.16897 8.25527,9.05212 48.07088,30.62686 58.74486,36.76049 14.16646,8.14049 31.23705,3.77046 47.25457,3.48599 18.77591,-0.33383 44.90258,0.20519 56.34936,-9.91708 11.92535,-10.54537 13.89125,-28.40982 16.48973,-47.3267 1.53558,-10.12448 7.34597,-40.55267 7.34597,-40.55267 0,0 -6.26175,8.57141 -8.39195,-10.73589 -1.87052,-16.95368 -32.678,-15.17555 -51.11615,-16.09049 -16.75363,-0.83127 -33.17241,1.73589 -48.61169,11.00874 -13.52463,8.12281 -43.72365,6.77444 -58.88344,-1.29824 -15.18916,-4.56465 -21.82832,-18.48895 -32.71089,-27.94346 -15.29156,-13.86039 -31.8696,-27.12971 -52.04209,-34.12335 -12.66427,-3.11302 -22.3005,-14.65016 -35.41735,-16.2079 -27.25421,2.33717 5.72954,16.61513 -12.44466,12.54196 z"
         inkscape:path-effect="#path-effect3372"
         style="opacity:0.39599998;fill:#f9f9f9;fill-rule:evenodd;stroke:#000000;stroke-width:1.55342364;stroke-linecap:butt;stroke-linejoin:miter;stroke-miterlimit:4;stroke-dasharray:none;stroke-opacity:0.22222224" />
      <path
         id="path2569"
         sodipodi:nodetypes="cccc"
         style="opacity:0.82399998;fill:#e9d2af;fill-rule:evenodd;stroke:#3f2d10;stroke-width:2;stroke-miterlimit:4;stroke-dasharray:none"
         d="m 373.50733,599.06866 c 4.1719,22.79108 20.29699,32.63979 32.84282,44.15828 17.71984,23.76388 1.74934,41.14972 -20.30703,38.58942 -21.06013,-9.22992 -27.09037,-12.34069 -30.16916,-32.72972"
         inkscape:connector-curvature="0" />
      <path
         id="path2577"
         sodipodi:nodetypes="cssc"
         style="fill:#006fd5;fill-opacity:1;fill-rule:evenodd;stroke:#000000;stroke-width:2.71665645;stroke-miterlimit:4;stroke-dasharray:none"
         d="m 309.91276,573.45702 c 2.92523,-4.4718 28.03833,-8.82289 25.95175,8.53084 -1.77118,14.73048 -16.74497,16.74361 -22.05485,12.94601 -10.67343,-7.63359 -8.62417,-14.61731 -3.8969,-21.47685 z"
         inkscape:connector-curvature="0" />
      <path
         id="path2579"
         sodipodi:nodetypes="cssc"
         style="fill:#006fd5;fill-opacity:1;fill-rule:evenodd;stroke:#000000;stroke-width:2.62170672;stroke-miterlimit:4;stroke-dasharray:none"
         d="m 404.81478,570.01737 c 8.15784,-0.58472 21.74155,2.4942 16.12384,20.29323 -3.87513,12.28923 -15.90784,6.80666 -22.34729,0.0532 -6.69095,-7.01723 -8.34618,-18.64571 6.22345,-20.3464 z"
         inkscape:connector-curvature="0" />
      <rect
         transform="matrix(-0.99959706,0.02838517,0,1,0,0)"
         style="opacity:1;fill:#ffffff;fill-opacity:0.63768119;fill-rule:evenodd;stroke:#0000cf;stroke-width:4.46241188;stroke-linecap:round;stroke-linejoin:round;stroke-miterlimit:4;stroke-dasharray:none;stroke-opacity:1"
         id="rect4163"
         width="72.287582"
         height="54.172222"
         x="-439.9913"
         y="569.9538"
         ry="20.946598" />
      <rect
         transform="scale(-1,1)"
         style="opacity:1;fill:#ffffff;fill-opacity:0.63768119;fill-rule:evenodd;stroke:#0000cf;stroke-width:4.52709389;stroke-linecap:round;stroke-linejoin:round;stroke-miterlimit:4;stroke-dasharray:none;stroke-opacity:1"
         id="rect4163-3"
         width="74.47641"
         height="54.115467"
         x="-352.78329"
         y="558.16022"
         ry="20.924654" />
      <path
         sodipodi:nodetypes="cc"
         inkscape:connector-curvature="0"
         id="path4204"
         d="m 383.12067,558.88081 -47.14882,-0.74993"
         style="fill:none;fill-rule:evenodd;stroke:#0000e5;stroke-width:4.86928082;stroke-linecap:butt;stroke-linejoin:miter;stroke-miterlimit:4;stroke-dasharray:none;stroke-opacity:1" />
      <path
         sodipodi:nodetypes="csscssscsssc"
         inkscape:connector-curvature="0"
         id="path4212"
         d="m 401.17914,478.21395 c -16.94267,-94.6907 -211.60276,-118.55633 -228.22555,23.79347 -0.77846,6.66637 25.86169,25.9893 34.82442,42.53586 6.45336,11.91384 9.85738,142.57025 -15.42009,104.80946 -2.86201,-10.38049 11.32797,-53.11236 7.75567,-67.51772 -5.15712,-20.7962 -25.52145,-23.41831 -38.69594,-9.37749 -7.62668,8.12819 -14.85698,22.72155 -11.33461,35.14001 8.0842,28.50162 -19.36345,41.32986 -33.59682,-4.81993 -2.76742,-80.14507 -0.80037,-38.08706 15.16,-97.16498 21.66476,-80.19292 47.91076,-81.66912 52.68513,-84.43048 61.71685,-35.6953 133.98654,-29.69337 176.70051,-13.11101 24.17422,9.38491 60.30641,27.71063 75.94025,106.91605"
         style="fill:#ffffff;fill-opacity:0.63768119;fill-rule:evenodd;stroke:none;stroke-width:0.5;stroke-linecap:butt;stroke-linejoin:miter;stroke-miterlimit:4;stroke-dasharray:none;stroke-opacity:1" />
      <path
         sodipodi:nodetypes="ccc"
         id="path4206"
         d="m 282.9515,563.08217 -103.81984,2.90055 z"
         style="fill:none;fill-rule:evenodd;stroke:#0000db;stroke-width:4.98050165;stroke-linecap:butt;stroke-linejoin:miter;stroke-miterlimit:4;stroke-dasharray:none;stroke-opacity:1"
         inkscape:connector-curvature="0" />
      <path
         sodipodi:nodetypes="ccscc"
         inkscape:connector-curvature="0"
         id="path4926"
         d="m 323.89423,713.32192 c 23.76013,1.79691 18.81762,21.88247 51.78,22.77522 26.61717,-10.22814 42.27489,-24.62543 36.43955,-14.34365 -5.34806,9.42319 -19.61034,39.42136 -32.06078,40.42696 -33.85489,0.0305 -54.22427,-32.67996 -56.15877,-48.85853 z"
         style="opacity:1;fill:#ffffff;fill-opacity:1;fill-rule:evenodd;stroke:#481c1c;stroke-width:4.18107939;stroke-linecap:butt;stroke-linejoin:miter;stroke-miterlimit:4;stroke-dasharray:none;stroke-opacity:0.63050848" />
      <path
         sodipodi:nodetypes="czc"
         inkscape:connector-curvature="0"
         id="path4946"
         d="m 315.89617,664.46824 c 0,0 -6.43056,4.90651 -10.75875,10.01963 -4.32819,5.11313 -3.88126,9.95834 -5.25812,14.63553"
         style="opacity:0.5979996;fill:none;fill-rule:evenodd;stroke:#000000;stroke-width:0.9811126px;stroke-linecap:butt;stroke-linejoin:miter;stroke-opacity:1" />
    </g>
  </g>
</svg>
